<svg id="Layer_1" data-name="Layer 1" xmlns="http://www.w3.org/2000/svg" viewBox="0 0 363.247 59.856"><defs><style>.cls-1{fill:#9ddcf9;}.cls-1,.cls-2,.cls-3,.cls-4{fill-rule:evenodd;}.cls-2{fill:#00acdb;}.cls-3{fill:#0256a7;}.cls-4{fill:#002855;}</style></defs><path class="cls-1" d="M3.959,48.306A3.958,3.958,0,0,1,0,44.348v-28.8a3.959,3.959,0,1,1,7.917,0v28.8A3.958,3.958,0,0,1,3.959,48.306Z"/><path class="cls-2" d="M51.461,48.306A3.958,3.958,0,0,1,47.5,44.348V15.571a3.959,3.959,0,1,1,7.917,0V44.348A3.959,3.959,0,0,1,51.461,48.306Z"/><path class="cls-3" d="M27.71,59.856A3.96,3.96,0,0,1,23.751,55.9V4.021a3.959,3.959,0,0,1,7.917,0V55.9A3.959,3.959,0,0,1,27.71,59.856Z"/><path class="cls-4" d="M151.4,14.179a2.643,2.643,0,0,1,2.587-2.653,2.616,2.616,0,0,1,2.655,2.653v31a2.559,2.559,0,0,1-2.588,2.653,2.614,2.614,0,0,1-2.654-2.653Z"/><path class="cls-4" d="M170.8,29.8v.136c0,8.3,5.786,13.617,12.39,13.617,6.536,0,12.729-5.515,12.729-13.617V29.8c0-8.1-6.193-13.547-12.729-13.547-6.81,0-12.39,5.037-12.39,13.547Zm30.158,15.386h0a2.622,2.622,0,1,1-5.243,0V41.4c-2.859,4.221-7.012,6.84-13.48,6.84-8.44,0-16.816-6.671-16.816-18.246v-.136c0-11.5,8.376-18.312,16.816-18.312,6.536,0,10.758,2.551,13.48,6.5V2.656A2.561,2.561,0,0,1,198.3,0a2.616,2.616,0,0,1,2.655,2.656Z"/><path class="cls-4" d="M337.172,43.751a2.374,2.374,0,0,1-.952-1.907,2.282,2.282,0,0,1,2.314-2.247,2.087,2.087,0,0,1,1.294.41,19.773,19.773,0,0,0,11.164,3.744c4.222,0,7.286-2.178,7.286-5.584v-.134c0-3.54-4.153-4.9-8.783-6.2-5.514-1.566-11.642-3.472-11.642-9.938v-.138c0-6.058,5.038-10.076,11.982-10.076a24.518,24.518,0,0,1,11.234,3,2.543,2.543,0,0,1,1.293,2.178,2.282,2.282,0,0,1-2.315,2.247,2.62,2.62,0,0,1-1.157-.273,19.042,19.042,0,0,0-9.189-2.723c-4.155,0-6.81,2.178-6.81,5.107v.136c0,3.335,4.358,4.628,9.055,6.058,5.446,1.633,11.3,3.744,11.3,10.076v.134c0,6.674-5.514,10.554-12.527,10.554A24.364,24.364,0,0,1,337.172,43.751Z"/><path class="cls-4" d="M328.662,26.364c0-7.918-6.946-14.815-15.32-14.815A15.339,15.339,0,0,0,298,26.887V45.028a2.73,2.73,0,0,0,2.773,2.772,2.673,2.673,0,0,0,2.7-2.772l0-8.148V26.363a9.854,9.854,0,0,1,19.708,0V45.028a2.739,2.739,0,1,0,5.477,0S328.713,28.07,328.662,26.364Z"/><path class="cls-4" d="M288.65,25.983h-.012a15.345,15.345,0,0,0-15.273-13.966h-2.348a2.481,2.481,0,0,0,0,4.961h2.336c5.443,0,10.26,4.412,10.26,9.853v.444a37.374,37.374,0,0,0-10.824-1.5c-8.918,0-15.047,3.949-15.047,11.369v.136c0,7.217,6.364,10.961,12.9,10.961a15.16,15.16,0,0,0,13.04-6.959v4.032a2.486,2.486,0,0,0,4.972,0l0-19.334ZM271.58,43.537h0c-4.766,0-8.526-2.032-8.526-6.457v-.138c0-4.425,3.676-7.284,10.279-7.284a45.1,45.1,0,0,1,10.347,1.5v.008C283.68,37.615,277.652,43.537,271.58,43.537Z"/><path class="cls-4" d="M256.753,14.491a2.482,2.482,0,0,0-2.482-2.482h-1.695a15.339,15.339,0,0,0-15.338,15.338V45.028A2.73,2.73,0,0,0,240.01,47.8a2.672,2.672,0,0,0,2.7-2.772l0-8.148V26.823a9.854,9.854,0,0,1,9.853-9.853h.014v0h1.693A2.482,2.482,0,0,0,256.753,14.491Z"/><path class="cls-4" d="M228.536,14.365a2.315,2.315,0,0,0-2.315-2.316h-9.19V2.809A2.792,2.792,0,0,0,214.4.011a2.6,2.6,0,0,0-2.608,2.654v35.5c0,7.148,4.288,9.94,9.939,9.94a13.281,13.281,0,0,0,5.173-.952,2.19,2.19,0,0,0,1.5-2.044,2.265,2.265,0,0,0-2.247-2.245,14.906,14.906,0,0,1-3.2.474c-3.54,0-5.921-1.566-5.921-5.854V16.68h9.19A2.315,2.315,0,0,0,228.536,14.365Z"/><path class="cls-4" d="M125.864,11.526a14.655,14.655,0,0,0-12.092,6.366,14.525,14.525,0,0,0-12-6.343,14.681,14.681,0,0,0-14.68,14.68V45.18a2.613,2.613,0,0,0,2.655,2.654,2.559,2.559,0,0,0,2.588-2.654l0-19.453a9.43,9.43,0,0,1,18.86,0l0,17.281h0v.008a2.622,2.622,0,1,0,5.244,0L116.423,25.7a9.431,9.431,0,0,1,18.862,0V45.156a2.621,2.621,0,1,0,5.242,0l.016-18.927A14.752,14.752,0,0,0,125.864,11.526Z"/></svg>