<svg width="52" height="13" viewBox="0 0 52 13" fill="none" xmlns="http://www.w3.org/2000/svg">
<path fill-rule="evenodd" clip-rule="evenodd" d="M0 0H8.72293V2.21608H0V0ZM0 12.6V5.6538H8.14449V7.8736H2.78424V12.6H0Z" fill="#2490EF"/>
<path d="M16.8295 12.4181H12.7229V0H16.9124C18.1155 0 19.1491 0.2486 20.013 0.74581C20.8809 1.23898 21.5476 1.94841 22.013 2.87411C22.4785 3.79981 22.7113 4.90741 22.7113 6.19692C22.7113 7.49047 22.4766 8.6021 22.0071 9.5319C21.5416 10.4616 20.869 11.1751 19.9893 11.6723C19.1136 12.1695 18.0603 12.4181 16.8295 12.4181ZM14.9182 10.4717H16.723C17.5672 10.4717 18.2714 10.3141 18.8355 9.9987C19.3996 9.6794 19.8237 9.2044 20.1077 8.5738C20.3917 7.93917 20.5337 7.14687 20.5337 6.19692C20.5337 5.24697 20.3917 4.45871 20.1077 3.83215C19.8237 3.20154 19.4035 2.73061 18.8473 2.41935C18.295 2.10404 17.6086 1.94639 16.7881 1.94639H14.9182V10.4717Z" fill="black"/>
<path d="M28.5596 12.5999C27.6483 12.5999 26.8613 12.4059 26.1986 12.0178C25.5398 11.6257 25.0329 11.0719 24.6778 10.3564C24.3228 9.6369 24.1453 8.79 24.1453 7.81578C24.1453 6.85774 24.3228 6.01694 24.6778 5.29336C25.0368 4.56573 25.5378 3.9998 26.1808 3.59557C26.8238 3.18729 27.5793 2.98315 28.4471 2.98315C29.0073 2.98315 29.5359 3.07613 30.033 3.26208C30.5339 3.44398 30.9758 3.72695 31.3584 4.11097C31.745 4.49499 32.0488 4.98412 32.2697 5.57834C32.4906 6.16852 32.601 6.87189 32.601 7.68845V8.3615H25.1512V6.882H30.5478C30.5438 6.46159 30.4551 6.08768 30.2815 5.76025C30.1079 5.42877 29.8653 5.16804 29.5537 4.97805C29.246 4.78806 28.887 4.69307 28.4767 4.69307C28.0388 4.69307 27.6542 4.80221 27.3228 5.0205C26.9915 5.23474 26.7331 5.51771 26.5477 5.86939C26.3662 6.21703 26.2735 6.59903 26.2696 7.0154V8.3069C26.2696 8.8486 26.3662 9.3135 26.5595 9.7015C26.7528 10.0856 27.023 10.3807 27.3702 10.5868C27.7173 10.7889 28.1236 10.89 28.5891 10.89C28.9008 10.89 29.1828 10.8455 29.4353 10.7566C29.6878 10.6636 29.9067 10.5282 30.0921 10.3503C30.2775 10.1725 30.4176 9.9522 30.5123 9.6894L32.5123 9.9198C32.3861 10.4615 32.1454 10.9345 31.7904 11.3387C31.4393 11.7389 30.9896 12.0501 30.4412 12.2725C29.8929 12.4908 29.2657 12.5999 28.5596 12.5999Z" fill="black"/>
<path d="M41.4301 5.56621L39.4774 5.7845C39.4222 5.58238 39.3256 5.39239 39.1875 5.21453C39.0534 5.03667 38.8719 4.89316 38.6431 4.78402C38.4143 4.67488 38.1342 4.6203 37.8029 4.6203C37.3571 4.6203 36.9823 4.71934 36.6786 4.91742C36.3788 5.11549 36.2308 5.37218 36.2348 5.68748C36.2308 5.95832 36.3275 6.17863 36.5247 6.34841C36.7259 6.51819 37.0573 6.65765 37.5188 6.76679L39.0692 7.10635C39.9291 7.29634 40.5682 7.59749 40.9864 8.0098C41.4085 8.4221 41.6215 8.9618 41.6254 9.6288C41.6215 10.2149 41.4538 10.7323 41.1224 11.181C40.795 11.6257 40.3394 11.9733 39.7556 12.224C39.1717 12.4746 38.5011 12.5999 37.7437 12.5999C36.6312 12.5999 35.7358 12.3614 35.0572 11.8844C34.3787 11.4034 33.9744 10.7344 33.8442 9.8774L35.933 9.6712C36.0277 10.0916 36.2289 10.4089 36.5366 10.6232C36.8443 10.8374 37.2447 10.9446 37.7378 10.9446C38.2467 10.9446 38.6549 10.8374 38.9626 10.6232C39.2743 10.4089 39.4301 10.1442 39.4301 9.8289C39.4301 9.5621 39.3295 9.3418 39.1283 9.1679C38.9311 8.9941 38.6234 8.8607 38.2052 8.7678L36.6549 8.4343C35.7831 8.2483 35.1381 7.93503 34.72 7.49441C34.3018 7.04976 34.0947 6.48787 34.0987 5.80876C34.0947 5.23474 34.2466 4.73753 34.5543 4.31713C34.8659 3.89268 35.2979 3.56525 35.8502 3.33484C36.4064 3.10038 37.0474 2.98315 37.7733 2.98315C38.8384 2.98315 39.6767 3.21559 40.2881 3.68046C40.9035 4.14533 41.2842 4.77391 41.4301 5.56621Z" fill="black"/>
<path d="M45.1778 9.4955L45.1719 6.84572H45.5151L48.7814 3.10452H51.2844L47.2666 7.68855H46.8228L45.1778 9.4955ZM43.2251 12.4181V0H45.3671V12.4181H43.2251ZM48.9293 12.4181L45.9707 8.1797L47.4145 6.63349L51.4915 12.4181H48.9293Z" fill="black"/>
</svg>
