<?xml version="1.0" encoding="UTF-8"?>
<svg width="88px" height="88px" viewBox="0 0 88 88" version="1.1" xmlns="http://www.w3.org/2000/svg" xmlns:xlink="http://www.w3.org/1999/xlink">
    <!-- Generator: Sketch 56.2 (81672) - https://sketch.com -->
    <title>erpnext-logo</title>
    <desc>Created with Sketch.</desc>
    <g id="Page-1" stroke="none" stroke-width="1" fill="none" fill-rule="evenodd">
        <g id="erpnext-logo" fill-rule="nonzero">
            <path d="M74.0833425,8.65999998e-07 C81.4123344,8.65999998e-07 87.3125279,5.90019975 87.3125279,13.2291584 L87.3125279,74.0833368 C87.3125279,81.4122954 81.4123344,87.3125043 74.0833425,87.3125043 L13.2292094,87.3125043 C5.90031746,87.3125043 2.3949e-05,81.4122954 2.3949e-05,74.0833368 L2.3949e-05,13.2291584 C2.3949e-05,5.90019975 5.90031746,8.65999998e-07 13.2292094,8.65999998e-07 L74.0833425,8.65999998e-07 Z" id="Box" fill="#5A67D8"></path>
            <path d="M29.7776717,21.8279666 C29.5028225,21.8279666 29.2349848,21.8558854 28.9761694,21.9085798 C28.7173275,21.9612743 28.4675079,22.0389083 28.229965,22.1390584 C28.1111671,22.1891334 27.9957029,22.2450161 27.8832021,22.3059734 C27.6582269,22.4278829 27.4465337,22.5707975 27.2506891,22.7323019 C26.3693091,23.4590779 25.8089216,24.5599536 25.8089216,25.7967167 L25.8089216,26.0385617 L25.8089216,61.2741253 L25.8089216,61.5154782 C25.8089216,63.7141657 27.5789842,65.4842283 29.7776717,65.4842283 L57.5346337,65.4842283 C59.7333212,65.4842283 61.5033838,63.7141657 61.5033838,61.5154782 L61.5033838,61.2741253 C61.5033838,59.0754377 59.7333212,57.3053752 57.5346337,57.3053752 L33.988251,57.3053752 L33.988251,47.4201976 L51.4957041,47.4201976 C53.6943917,47.4201976 55.4644542,45.6501351 55.4644542,43.4514475 L55.4644542,43.2101211 C55.4644542,41.0114335 53.6943917,39.241371 51.4957041,39.241371 L33.988251,39.241371 L33.988251,30.0073118 L57.5346337,30.0073118 C59.7333212,30.0073118 61.5033838,28.2372493 61.5033838,26.0385617 L61.5033838,25.7967167 C61.5033838,23.5980291 59.7333212,21.8279666 57.5346337,21.8279666 L29.7776717,21.8279666 Z" id="E" fill="#FFFFFF"></path>
        </g>
    </g>
</svg>